<svg width="48" height="48" viewBox="0 0 48 48" fill="none" xmlns="http://www.w3.org/2000/svg">
<path d="M46.1789 14.8131C46.9692 16.719 47.5211 18.7489 47.7971 20.8654L46.8055 20.9947C46.9338 21.9779 47 22.981 47 24C47 25.019 46.9338 26.0221 46.8055 27.0053L47.7971 27.1346C47.5211 29.2511 46.9692 31.281 46.1789 33.1869L45.2551 32.8039C44.48 34.6731 43.4651 36.4185 42.2487 38.0015L43.0416 38.6108C41.7639 40.2734 40.2734 41.7639 38.6108 43.0416L38.0015 42.2487C36.4185 43.4651 34.6732 44.48 32.8039 45.2551L33.1869 46.1789C31.281 46.9692 29.2511 47.5211 27.1346 47.7971L27.0053 46.8055C26.0221 46.9338 25.019 47 24 47C22.981 47 21.9779 46.9338 20.9947 46.8055L20.8654 47.7971C18.7489 47.5211 16.719 46.9692 14.8131 46.1789L15.1961 45.2551C13.3268 44.48 11.5815 43.4651 9.99851 42.2487L9.38918 43.0416C7.72657 41.7639 6.23606 40.2734 4.95841 38.6108L5.75133 38.0015C4.53487 36.4185 3.52003 34.6732 2.74486 32.8039L1.82113 33.1869C1.03077 31.281 0.478936 29.2511 0.202855 27.1346L1.19445 27.0053C1.06621 26.0221 1 25.019 1 24C1 22.981 1.06621 21.9779 1.19445 20.9947L0.202854 20.8654C0.478935 18.7489 1.03077 16.719 1.82113 14.8131L2.74486 15.1961C3.52002 13.3268 4.53487 11.5815 5.75133 9.99851L4.95841 9.38918C6.23606 7.72657 7.72657 6.23606 9.38918 4.95841L9.99851 5.75133C11.5815 4.53487 13.3268 3.52003 15.1961 2.74486L14.8131 1.82113C16.719 1.03077 18.7489 0.478936 20.8654 0.202855L20.9947 1.19445C21.9779 1.06621 22.981 1 24 1C25.019 1 26.0221 1.06621 27.0053 1.19445L27.1346 0.202854C29.2511 0.478935 31.281 1.03077 33.1869 1.82113L32.8039 2.74486C34.6732 3.52002 36.4185 4.53487 38.0015 5.75133L38.6108 4.95841C40.2734 6.23606 41.7639 7.72657 43.0416 9.38918L42.2487 9.99851C43.4651 11.5815 44.48 13.3268 45.2551 15.1961L46.1789 14.8131Z" stroke="#31394D" stroke-width="2" stroke-dasharray="6 6"/>
<rect x="23" y="12" width="2" height="24" rx="1" fill="#18A0FB"/>
<rect x="12" y="25" width="2" height="24" rx="1" transform="rotate(-90 12 25)" fill="#18A0FB"/>
</svg>
